<?xml version="1.0" encoding="UTF-8"?><svg xmlns="http://www.w3.org/2000/svg" xmlns:xlink="http://www.w3.org/1999/xlink" fill-opacity="1" color-rendering="auto" color-interpolation="auto" stroke="black" text-rendering="auto" stroke-linecap="square" width="1339" stroke-miterlimit="10" stroke-opacity="1" shape-rendering="auto" fill="black" stroke-dasharray="none" font-weight="normal" stroke-width="1" height="310" font-family="'Dialog'" font-style="normal" stroke-linejoin="miter" font-size="12" stroke-dashoffset="0" image-rendering="auto">
  <!--Generated by ySVG-->
  <defs id="genericDefs"/>
  <g>
    <defs id="defs1">
      <clipPath clipPathUnits="userSpaceOnUse" id="clipPath1">
        <path d="M0 0 L1339 0 L1339 310 L0 310 L0 0 Z"/>
      </clipPath>
      <clipPath clipPathUnits="userSpaceOnUse" id="clipPath2">
        <path d="M-15 -15 L1324 -15 L1324 295 L-15 295 L-15 -15 Z"/>
      </clipPath>
    </defs>
    <g fill="white" transform="translate(15,15)" stroke="white">
      <rect x="-15" width="1339" height="310" y="-15" clip-path="url(#clipPath2)" stroke="none"/>
    </g>
    <g fill="rgb(255,204,153)" transform="matrix(1,0,0,1,15,15)" stroke="rgb(255,204,153)">
      <rect x="0" width="351.4414" height="30" y="125" clip-path="url(#clipPath2)" stroke="none"/>
    </g>
    <g stroke-miterlimit="1.45" font-family="sans-serif" transform="matrix(1,0,0,1,15,15)" stroke-linecap="butt">
      <text x="7" xml:space="preserve" y="144.1562" clip-path="url(#clipPath2)" stroke="none">com.anrisoftware.resources:resources-templates:jar:1.3</text>
      <rect fill="none" x="0" width="351.4414" height="30" y="125" clip-path="url(#clipPath2)"/>
    </g>
    <g fill="rgb(255,204,153)" transform="matrix(1,0,0,1,15,15)" stroke="rgb(255,204,153)">
      <rect x="396.4414" width="309.3242" height="30" y="0" clip-path="url(#clipPath2)" stroke="none"/>
    </g>
    <g stroke-miterlimit="1.45" font-family="sans-serif" transform="matrix(1,0,0,1,15,15)" stroke-linecap="butt">
      <text x="403.4414" xml:space="preserve" y="19.1562" clip-path="url(#clipPath2)" stroke="none">com.anrisoftware.resources:resources-api:jar:1.8</text>
      <rect fill="none" x="396.4414" width="309.3242" height="30" y="0" clip-path="url(#clipPath2)"/>
    </g>
    <g fill="rgb(255,204,153)" transform="matrix(1,0,0,1,15,15)" stroke="rgb(255,204,153)">
      <rect x="750.7656" width="325.3789" height="30" y="0" clip-path="url(#clipPath2)" stroke="none"/>
    </g>
    <g stroke-miterlimit="1.45" font-family="sans-serif" transform="matrix(1,0,0,1,15,15)" stroke-linecap="butt">
      <text x="757.7656" xml:space="preserve" y="19.1562" clip-path="url(#clipPath2)" stroke="none">com.anrisoftware.globalpom:globalpom-utils:jar:1.4</text>
      <rect fill="none" x="750.7656" width="325.3789" height="30" y="0" clip-path="url(#clipPath2)"/>
    </g>
    <g fill="rgb(204,204,255)" transform="matrix(1,0,0,1,15,15)" stroke="rgb(204,204,255)">
      <rect x="1121.1445" width="187.4199" height="30" y="0" clip-path="url(#clipPath2)" stroke="none"/>
    </g>
    <g stroke-miterlimit="1.45" font-family="sans-serif" transform="matrix(1,0,0,1,15,15)" stroke-linecap="butt">
      <text x="1128.1445" xml:space="preserve" y="19.1562" clip-path="url(#clipPath2)" stroke="none">javax.inject:javax.inject:jar:1</text>
      <rect fill="none" x="1121.1445" width="187.4199" height="30" y="0" clip-path="url(#clipPath2)"/>
    </g>
    <g fill="rgb(255,204,153)" transform="matrix(1,0,0,1,15,15)" stroke="rgb(255,204,153)">
      <rect x="396.4414" width="351.8867" height="30" y="50" clip-path="url(#clipPath2)" stroke="none"/>
    </g>
    <g stroke-miterlimit="1.45" font-family="sans-serif" transform="matrix(1,0,0,1,15,15)" stroke-linecap="butt">
      <text x="403.4414" xml:space="preserve" y="69.1562" clip-path="url(#clipPath2)" stroke="none">com.anrisoftware.resources:resources-getbundle:jar:1.6</text>
      <rect fill="none" x="396.4414" width="351.8867" height="30" y="50" clip-path="url(#clipPath2)"/>
    </g>
    <g fill="rgb(204,204,255)" transform="matrix(1,0,0,1,15,15)" stroke="rgb(204,204,255)">
      <rect x="396.4414" width="355.4375" height="30" y="250" clip-path="url(#clipPath2)" stroke="none"/>
    </g>
    <g stroke-miterlimit="1.45" font-family="sans-serif" transform="matrix(1,0,0,1,15,15)" stroke-linecap="butt">
      <text x="403.4414" xml:space="preserve" y="269.1562" clip-path="url(#clipPath2)" stroke="none">com.google.inject.extensions:guice-assistedinject:jar:3.0</text>
      <rect fill="none" x="396.4414" width="355.4375" height="30" y="250" clip-path="url(#clipPath2)"/>
    </g>
    <g fill="rgb(204,204,255)" transform="matrix(1,0,0,1,15,15)" stroke="rgb(204,204,255)">
      <rect x="796.8789" width="200.2227" height="30" y="250" clip-path="url(#clipPath2)" stroke="none"/>
    </g>
    <g stroke-miterlimit="1.45" font-family="sans-serif" transform="matrix(1,0,0,1,15,15)" stroke-linecap="butt">
      <text x="803.8789" xml:space="preserve" y="269.1562" clip-path="url(#clipPath2)" stroke="none">com.google.inject:guice:jar:3.0</text>
      <rect fill="none" x="796.8789" width="200.2227" height="30" y="250" clip-path="url(#clipPath2)"/>
    </g>
    <g fill="rgb(204,204,255)" transform="matrix(1,0,0,1,15,15)" stroke="rgb(204,204,255)">
      <rect x="1042.1016" width="198.0488" height="30" y="250" clip-path="url(#clipPath2)" stroke="none"/>
    </g>
    <g stroke-miterlimit="1.45" font-family="sans-serif" transform="matrix(1,0,0,1,15,15)" stroke-linecap="butt">
      <text x="1049.1016" xml:space="preserve" y="269.1562" clip-path="url(#clipPath2)" stroke="none">aopalliance:aopalliance:jar:1.0</text>
      <rect fill="none" x="1042.1016" width="198.0488" height="30" y="250" clip-path="url(#clipPath2)"/>
    </g>
    <g fill="rgb(255,204,153)" transform="matrix(1,0,0,1,15,15)" stroke="rgb(255,204,153)">
      <rect x="396.4414" width="326.0762" height="30" y="100" clip-path="url(#clipPath2)" stroke="none"/>
    </g>
    <g stroke-miterlimit="1.45" font-family="sans-serif" transform="matrix(1,0,0,1,15,15)" stroke-linecap="butt">
      <text x="403.4414" xml:space="preserve" y="119.1562" clip-path="url(#clipPath2)" stroke="none">com.anrisoftware.globalpom:globalpom-log:jar:1.10</text>
      <rect fill="none" x="396.4414" width="326.0762" height="30" y="100" clip-path="url(#clipPath2)"/>
    </g>
    <g fill="rgb(204,204,255)" transform="matrix(1,0,0,1,15,15)" stroke="rgb(204,204,255)">
      <rect x="396.4414" width="287.1758" height="30" y="200" clip-path="url(#clipPath2)" stroke="none"/>
    </g>
    <g stroke-miterlimit="1.45" font-family="sans-serif" transform="matrix(1,0,0,1,15,15)" stroke-linecap="butt">
      <text x="403.4414" xml:space="preserve" y="219.1562" clip-path="url(#clipPath2)" stroke="none">org.apache.commons:commons-lang3:jar:3.1</text>
      <rect fill="none" x="396.4414" width="287.1758" height="30" y="200" clip-path="url(#clipPath2)"/>
    </g>
    <g fill="rgb(204,204,255)" transform="matrix(1,0,0,1,15,15)" stroke="rgb(204,204,255)">
      <rect x="396.4414" width="168.1836" height="30" y="150" clip-path="url(#clipPath2)" stroke="none"/>
    </g>
    <g stroke-miterlimit="1.45" font-family="sans-serif" transform="matrix(1,0,0,1,15,15)" stroke-linecap="butt">
      <text x="403.4414" xml:space="preserve" y="169.1562" clip-path="url(#clipPath2)" stroke="none">org.slf4j:slf4j-api:jar:1.7.5</text>
      <rect fill="none" x="396.4414" width="168.1836" height="30" y="150" clip-path="url(#clipPath2)"/>
      <path fill="none" d="M220.7666 125 L506.0576 30" clip-path="url(#clipPath2)"/>
      <path fill="none" d="M705.7656 15 L750.7656 15" clip-path="url(#clipPath2)"/>
      <path fill="none" d="M1076.1445 15 L1121.1445 15" clip-path="url(#clipPath2)"/>
      <path fill="none" d="M255.0535 125 L493.0519 80" clip-path="url(#clipPath2)"/>
      <path fill="none" d="M223.5334 155 L526.3474 250" clip-path="url(#clipPath2)"/>
      <path fill="none" d="M751.8789 265 L796.8789 265" clip-path="url(#clipPath2)"/>
      <path fill="none" d="M997.1016 265 L1042.1016 265" clip-path="url(#clipPath2)"/>
      <path fill="none" d="M351.4414 128.5527 L396.4414 125.6211" clip-path="url(#clipPath2)"/>
      <path fill="none" d="M248.5824 155 L467.1676 200" clip-path="url(#clipPath2)"/>
      <path fill="none" d="M351.4414 154.4122 L396.4414 158.103" clip-path="url(#clipPath2)"/>
    </g>
  </g>
</svg>
