<?xml version="1.0" encoding="UTF-8"?><svg xmlns="http://www.w3.org/2000/svg" xmlns:xlink="http://www.w3.org/1999/xlink" fill-opacity="1" color-rendering="auto" color-interpolation="auto" stroke="black" text-rendering="auto" stroke-linecap="square" width="1322" stroke-miterlimit="10" stroke-opacity="1" shape-rendering="auto" fill="black" stroke-dasharray="none" font-weight="normal" stroke-width="1" height="310" font-family="'Dialog'" font-style="normal" stroke-linejoin="miter" font-size="12" stroke-dashoffset="0" image-rendering="auto">
  <!--Generated by ySVG-->
  <defs id="genericDefs"/>
  <g>
    <defs id="defs1">
      <clipPath clipPathUnits="userSpaceOnUse" id="clipPath1">
        <path d="M0 0 L1322 0 L1322 310 L0 310 L0 0 Z"/>
      </clipPath>
      <clipPath clipPathUnits="userSpaceOnUse" id="clipPath2">
        <path d="M-15 -15 L1307 -15 L1307 295 L-15 295 L-15 -15 Z"/>
      </clipPath>
    </defs>
    <g fill="white" transform="translate(15,15)" stroke="white">
      <rect x="-15" width="1322" height="310" y="-15" clip-path="url(#clipPath2)" stroke="none"/>
    </g>
    <g fill="rgb(255,204,153)" transform="matrix(1,0,0,1,15,15)" stroke="rgb(255,204,153)">
      <rect x="0" width="334.6484" height="30" y="125" clip-path="url(#clipPath2)" stroke="none"/>
    </g>
    <g stroke-miterlimit="1.45" font-family="sans-serif" transform="matrix(1,0,0,1,15,15)" stroke-linecap="butt">
      <text x="7" xml:space="preserve" y="144.1562" clip-path="url(#clipPath2)" stroke="none">com.anrisoftware.resources:resources-images:jar:1.7</text>
      <rect fill="none" x="0" width="334.6484" height="30" y="125" clip-path="url(#clipPath2)"/>
    </g>
    <g fill="rgb(255,204,153)" transform="matrix(1,0,0,1,15,15)" stroke="rgb(255,204,153)">
      <rect x="379.6484" width="309.3242" height="30" y="0" clip-path="url(#clipPath2)" stroke="none"/>
    </g>
    <g stroke-miterlimit="1.45" font-family="sans-serif" transform="matrix(1,0,0,1,15,15)" stroke-linecap="butt">
      <text x="386.6484" xml:space="preserve" y="19.1562" clip-path="url(#clipPath2)" stroke="none">com.anrisoftware.resources:resources-api:jar:1.8</text>
      <rect fill="none" x="379.6484" width="309.3242" height="30" y="0" clip-path="url(#clipPath2)"/>
    </g>
    <g fill="rgb(255,204,153)" transform="matrix(1,0,0,1,15,15)" stroke="rgb(255,204,153)">
      <rect x="733.9727" width="325.3789" height="30" y="0" clip-path="url(#clipPath2)" stroke="none"/>
    </g>
    <g stroke-miterlimit="1.45" font-family="sans-serif" transform="matrix(1,0,0,1,15,15)" stroke-linecap="butt">
      <text x="740.9727" xml:space="preserve" y="19.1562" clip-path="url(#clipPath2)" stroke="none">com.anrisoftware.globalpom:globalpom-utils:jar:1.4</text>
      <rect fill="none" x="733.9727" width="325.3789" height="30" y="0" clip-path="url(#clipPath2)"/>
    </g>
    <g fill="rgb(204,204,255)" transform="matrix(1,0,0,1,15,15)" stroke="rgb(204,204,255)">
      <rect x="1104.3516" width="187.4199" height="30" y="0" clip-path="url(#clipPath2)" stroke="none"/>
    </g>
    <g stroke-miterlimit="1.45" font-family="sans-serif" transform="matrix(1,0,0,1,15,15)" stroke-linecap="butt">
      <text x="1111.3516" xml:space="preserve" y="19.1562" clip-path="url(#clipPath2)" stroke="none">javax.inject:javax.inject:jar:1</text>
      <rect fill="none" x="1104.3516" width="187.4199" height="30" y="0" clip-path="url(#clipPath2)"/>
    </g>
    <g fill="rgb(255,204,153)" transform="matrix(1,0,0,1,15,15)" stroke="rgb(255,204,153)">
      <rect x="379.6484" width="351.8867" height="30" y="50" clip-path="url(#clipPath2)" stroke="none"/>
    </g>
    <g stroke-miterlimit="1.45" font-family="sans-serif" transform="matrix(1,0,0,1,15,15)" stroke-linecap="butt">
      <text x="386.6484" xml:space="preserve" y="69.1562" clip-path="url(#clipPath2)" stroke="none">com.anrisoftware.resources:resources-getbundle:jar:1.6</text>
      <rect fill="none" x="379.6484" width="351.8867" height="30" y="50" clip-path="url(#clipPath2)"/>
    </g>
    <g fill="rgb(204,204,255)" transform="matrix(1,0,0,1,15,15)" stroke="rgb(204,204,255)">
      <rect x="379.6484" width="355.4375" height="30" y="250" clip-path="url(#clipPath2)" stroke="none"/>
    </g>
    <g stroke-miterlimit="1.45" font-family="sans-serif" transform="matrix(1,0,0,1,15,15)" stroke-linecap="butt">
      <text x="386.6484" xml:space="preserve" y="269.1562" clip-path="url(#clipPath2)" stroke="none">com.google.inject.extensions:guice-assistedinject:jar:3.0</text>
      <rect fill="none" x="379.6484" width="355.4375" height="30" y="250" clip-path="url(#clipPath2)"/>
    </g>
    <g fill="rgb(204,204,255)" transform="matrix(1,0,0,1,15,15)" stroke="rgb(204,204,255)">
      <rect x="780.0859" width="200.2227" height="30" y="250" clip-path="url(#clipPath2)" stroke="none"/>
    </g>
    <g stroke-miterlimit="1.45" font-family="sans-serif" transform="matrix(1,0,0,1,15,15)" stroke-linecap="butt">
      <text x="787.0859" xml:space="preserve" y="269.1562" clip-path="url(#clipPath2)" stroke="none">com.google.inject:guice:jar:3.0</text>
      <rect fill="none" x="780.0859" width="200.2227" height="30" y="250" clip-path="url(#clipPath2)"/>
    </g>
    <g fill="rgb(204,204,255)" transform="matrix(1,0,0,1,15,15)" stroke="rgb(204,204,255)">
      <rect x="1025.3086" width="198.0488" height="30" y="250" clip-path="url(#clipPath2)" stroke="none"/>
    </g>
    <g stroke-miterlimit="1.45" font-family="sans-serif" transform="matrix(1,0,0,1,15,15)" stroke-linecap="butt">
      <text x="1032.3086" xml:space="preserve" y="269.1562" clip-path="url(#clipPath2)" stroke="none">aopalliance:aopalliance:jar:1.0</text>
      <rect fill="none" x="1025.3086" width="198.0488" height="30" y="250" clip-path="url(#clipPath2)"/>
    </g>
    <g fill="rgb(204,204,255)" transform="matrix(1,0,0,1,15,15)" stroke="rgb(204,204,255)">
      <rect x="379.6484" width="287.1758" height="30" y="200" clip-path="url(#clipPath2)" stroke="none"/>
    </g>
    <g stroke-miterlimit="1.45" font-family="sans-serif" transform="matrix(1,0,0,1,15,15)" stroke-linecap="butt">
      <text x="386.6484" xml:space="preserve" y="219.1562" clip-path="url(#clipPath2)" stroke="none">org.apache.commons:commons-lang3:jar:3.1</text>
      <rect fill="none" x="379.6484" width="287.1758" height="30" y="200" clip-path="url(#clipPath2)"/>
    </g>
    <g fill="rgb(255,204,153)" transform="matrix(1,0,0,1,15,15)" stroke="rgb(255,204,153)">
      <rect x="379.6484" width="326.0762" height="30" y="100" clip-path="url(#clipPath2)" stroke="none"/>
    </g>
    <g stroke-miterlimit="1.45" font-family="sans-serif" transform="matrix(1,0,0,1,15,15)" stroke-linecap="butt">
      <text x="386.6484" xml:space="preserve" y="119.1562" clip-path="url(#clipPath2)" stroke="none">com.anrisoftware.globalpom:globalpom-log:jar:1.10</text>
      <rect fill="none" x="379.6484" width="326.0762" height="30" y="100" clip-path="url(#clipPath2)"/>
    </g>
    <g fill="rgb(204,204,255)" transform="matrix(1,0,0,1,15,15)" stroke="rgb(204,204,255)">
      <rect x="379.6484" width="168.1836" height="30" y="150" clip-path="url(#clipPath2)" stroke="none"/>
    </g>
    <g stroke-miterlimit="1.45" font-family="sans-serif" transform="matrix(1,0,0,1,15,15)" stroke-linecap="butt">
      <text x="386.6484" xml:space="preserve" y="169.1562" clip-path="url(#clipPath2)" stroke="none">org.slf4j:slf4j-api:jar:1.7.5</text>
      <rect fill="none" x="379.6484" width="168.1836" height="30" y="150" clip-path="url(#clipPath2)"/>
      <path fill="none" d="M211.3626 125 L490.2722 30" clip-path="url(#clipPath2)"/>
      <path fill="none" d="M688.9727 15 L733.9727 15" clip-path="url(#clipPath2)"/>
      <path fill="none" d="M1059.3516 15 L1104.3516 15" clip-path="url(#clipPath2)"/>
      <path fill="none" d="M244.9777 125 L477.9383 80" clip-path="url(#clipPath2)"/>
      <path fill="none" d="M214.1294 155 L510.562 250" clip-path="url(#clipPath2)"/>
      <path fill="none" d="M735.0859 265 L780.0859 265" clip-path="url(#clipPath2)"/>
      <path fill="none" d="M980.3086 265 L1025.3086 265" clip-path="url(#clipPath2)"/>
      <path fill="none" d="M238.5066 155 L452.0539 200" clip-path="url(#clipPath2)"/>
      <path fill="none" d="M334.6484 128.8558 L379.6484 125.8587" clip-path="url(#clipPath2)"/>
      <path fill="none" d="M334.6484 154.1123 L379.6484 157.9076" clip-path="url(#clipPath2)"/>
    </g>
  </g>
</svg>
