<?xml version="1.0" encoding="UTF-8"?><svg xmlns="http://www.w3.org/2000/svg" xmlns:xlink="http://www.w3.org/1999/xlink" fill-opacity="1" color-rendering="auto" color-interpolation="auto" stroke="black" text-rendering="auto" stroke-linecap="square" width="1290" stroke-miterlimit="10" stroke-opacity="1" shape-rendering="auto" fill="black" stroke-dasharray="none" font-weight="normal" stroke-width="1" height="410" font-family="'Dialog'" font-style="normal" stroke-linejoin="miter" font-size="12" stroke-dashoffset="0" image-rendering="auto">
  <!--Generated by ySVG-->
  <defs id="genericDefs"/>
  <g>
    <defs id="defs1">
      <clipPath clipPathUnits="userSpaceOnUse" id="clipPath1">
        <path d="M0 0 L1290 0 L1290 410 L0 410 L0 0 Z"/>
      </clipPath>
      <clipPath clipPathUnits="userSpaceOnUse" id="clipPath2">
        <path d="M-15 -15 L1275 -15 L1275 395 L-15 395 L-15 -15 Z"/>
      </clipPath>
    </defs>
    <g fill="white" transform="translate(15,15)" stroke="white">
      <rect x="-15" width="1290" height="410" y="-15" clip-path="url(#clipPath2)" stroke="none"/>
    </g>
    <g fill="rgb(255,204,153)" transform="matrix(1,0,0,1,15,15)" stroke="rgb(255,204,153)">
      <rect x="0" width="301.9766" height="30" y="175" clip-path="url(#clipPath2)" stroke="none"/>
    </g>
    <g stroke-miterlimit="1.45" font-family="sans-serif" transform="matrix(1,0,0,1,15,15)" stroke-linecap="butt">
      <text x="7" xml:space="preserve" y="194.1562" clip-path="url(#clipPath2)" stroke="none">com.anrisoftware.resources:resources-st:jar:1.5</text>
      <rect fill="none" x="0" width="301.9766" height="30" y="175" clip-path="url(#clipPath2)"/>
    </g>
    <g fill="rgb(255,204,153)" transform="matrix(1,0,0,1,15,15)" stroke="rgb(255,204,153)">
      <rect x="346.9766" width="309.3242" height="30" y="0" clip-path="url(#clipPath2)" stroke="none"/>
    </g>
    <g stroke-miterlimit="1.45" font-family="sans-serif" transform="matrix(1,0,0,1,15,15)" stroke-linecap="butt">
      <text x="353.9766" xml:space="preserve" y="19.1562" clip-path="url(#clipPath2)" stroke="none">com.anrisoftware.resources:resources-api:jar:1.8</text>
      <rect fill="none" x="346.9766" width="309.3242" height="30" y="0" clip-path="url(#clipPath2)"/>
    </g>
    <g fill="rgb(255,204,153)" transform="matrix(1,0,0,1,15,15)" stroke="rgb(255,204,153)">
      <rect x="701.3008" width="325.3789" height="30" y="0" clip-path="url(#clipPath2)" stroke="none"/>
    </g>
    <g stroke-miterlimit="1.45" font-family="sans-serif" transform="matrix(1,0,0,1,15,15)" stroke-linecap="butt">
      <text x="708.3008" xml:space="preserve" y="19.1562" clip-path="url(#clipPath2)" stroke="none">com.anrisoftware.globalpom:globalpom-utils:jar:1.4</text>
      <rect fill="none" x="701.3008" width="325.3789" height="30" y="0" clip-path="url(#clipPath2)"/>
    </g>
    <g fill="rgb(204,204,255)" transform="matrix(1,0,0,1,15,15)" stroke="rgb(204,204,255)">
      <rect x="1071.6797" width="187.4199" height="30" y="0" clip-path="url(#clipPath2)" stroke="none"/>
    </g>
    <g stroke-miterlimit="1.45" font-family="sans-serif" transform="matrix(1,0,0,1,15,15)" stroke-linecap="butt">
      <text x="1078.6797" xml:space="preserve" y="19.1562" clip-path="url(#clipPath2)" stroke="none">javax.inject:javax.inject:jar:1</text>
      <rect fill="none" x="1071.6797" width="187.4199" height="30" y="0" clip-path="url(#clipPath2)"/>
    </g>
    <g fill="rgb(255,204,153)" transform="matrix(1,0,0,1,15,15)" stroke="rgb(255,204,153)">
      <rect x="346.9766" width="351.8867" height="30" y="50" clip-path="url(#clipPath2)" stroke="none"/>
    </g>
    <g stroke-miterlimit="1.45" font-family="sans-serif" transform="matrix(1,0,0,1,15,15)" stroke-linecap="butt">
      <text x="353.9766" xml:space="preserve" y="69.1562" clip-path="url(#clipPath2)" stroke="none">com.anrisoftware.resources:resources-getbundle:jar:1.6</text>
      <rect fill="none" x="346.9766" width="351.8867" height="30" y="50" clip-path="url(#clipPath2)"/>
    </g>
    <g fill="rgb(255,204,153)" transform="matrix(1,0,0,1,15,15)" stroke="rgb(255,204,153)">
      <rect x="346.9766" width="351.4414" height="30" y="100" clip-path="url(#clipPath2)" stroke="none"/>
    </g>
    <g stroke-miterlimit="1.45" font-family="sans-serif" transform="matrix(1,0,0,1,15,15)" stroke-linecap="butt">
      <text x="353.9766" xml:space="preserve" y="119.1562" clip-path="url(#clipPath2)" stroke="none">com.anrisoftware.resources:resources-templates:jar:1.3</text>
      <rect fill="none" x="346.9766" width="351.4414" height="30" y="100" clip-path="url(#clipPath2)"/>
    </g>
    <g fill="rgb(204,204,255)" transform="matrix(1,0,0,1,15,15)" stroke="rgb(204,204,255)">
      <rect x="743.418" width="287.1758" height="30" y="100" clip-path="url(#clipPath2)" stroke="none"/>
    </g>
    <g stroke-miterlimit="1.45" font-family="sans-serif" transform="matrix(1,0,0,1,15,15)" stroke-linecap="butt">
      <text x="750.418" xml:space="preserve" y="119.1562" clip-path="url(#clipPath2)" stroke="none">org.apache.commons:commons-lang3:jar:3.1</text>
      <rect fill="none" x="743.418" width="287.1758" height="30" y="100" clip-path="url(#clipPath2)"/>
    </g>
    <g fill="rgb(204,204,255)" transform="matrix(1,0,0,1,15,15)" stroke="rgb(204,204,255)">
      <rect x="346.9766" width="146.5039" height="30" y="350" clip-path="url(#clipPath2)" stroke="none"/>
    </g>
    <g stroke-miterlimit="1.45" font-family="sans-serif" transform="matrix(1,0,0,1,15,15)" stroke-linecap="butt">
      <text x="353.9766" xml:space="preserve" y="369.1562" clip-path="url(#clipPath2)" stroke="none">org.antlr:ST4:jar:4.0.4</text>
      <rect fill="none" x="346.9766" width="146.5039" height="30" y="350" clip-path="url(#clipPath2)"/>
    </g>
    <g fill="rgb(204,204,255)" transform="matrix(1,0,0,1,15,15)" stroke="rgb(204,204,255)">
      <rect x="538.4805" width="191.9902" height="30" y="350" clip-path="url(#clipPath2)" stroke="none"/>
    </g>
    <g stroke-miterlimit="1.45" font-family="sans-serif" transform="matrix(1,0,0,1,15,15)" stroke-linecap="butt">
      <text x="545.4805" xml:space="preserve" y="369.1562" clip-path="url(#clipPath2)" stroke="none">org.antlr:antlr-runtime:jar:3.3</text>
      <rect fill="none" x="538.4805" width="191.9902" height="30" y="350" clip-path="url(#clipPath2)"/>
    </g>
    <g fill="rgb(204,204,255)" transform="matrix(1,0,0,1,15,15)" stroke="rgb(204,204,255)">
      <rect x="775.4707" width="212.5391" height="30" y="350" clip-path="url(#clipPath2)" stroke="none"/>
    </g>
    <g stroke-miterlimit="1.45" font-family="sans-serif" transform="matrix(1,0,0,1,15,15)" stroke-linecap="butt">
      <text x="782.4707" xml:space="preserve" y="369.1562" clip-path="url(#clipPath2)" stroke="none">org.antlr:stringtemplate:jar:3.2.1</text>
      <rect fill="none" x="775.4707" width="212.5391" height="30" y="350" clip-path="url(#clipPath2)"/>
    </g>
    <g fill="rgb(204,204,255)" transform="matrix(1,0,0,1,15,15)" stroke="rgb(204,204,255)">
      <rect x="1033.0098" width="128.1465" height="30" y="350" clip-path="url(#clipPath2)" stroke="none"/>
    </g>
    <g stroke-miterlimit="1.45" font-family="sans-serif" transform="matrix(1,0,0,1,15,15)" stroke-linecap="butt">
      <text x="1040.0098" xml:space="preserve" y="369.1562" clip-path="url(#clipPath2)" stroke="none">antlr:antlr:jar:2.7.7</text>
      <rect fill="none" x="1033.0098" width="128.1465" height="30" y="350" clip-path="url(#clipPath2)"/>
    </g>
    <g fill="rgb(255,204,153)" transform="matrix(1,0,0,1,15,15)" stroke="rgb(255,204,153)">
      <rect x="346.9766" width="454.0566" height="30" y="150" clip-path="url(#clipPath2)" stroke="none"/>
    </g>
    <g stroke-miterlimit="1.45" font-family="sans-serif" transform="matrix(1,0,0,1,15,15)" stroke-linecap="butt">
      <text x="353.9766" xml:space="preserve" y="169.1562" clip-path="url(#clipPath2)" stroke="none">com.anrisoftware.propertiesutils:propertiesutils-contextproperties:jar:1.6</text>
      <rect fill="none" x="346.9766" width="454.0566" height="30" y="150" clip-path="url(#clipPath2)"/>
    </g>
    <g fill="rgb(204,204,255)" transform="matrix(1,0,0,1,15,15)" stroke="rgb(204,204,255)">
      <rect x="346.9766" width="355.4375" height="30" y="300" clip-path="url(#clipPath2)" stroke="none"/>
    </g>
    <g stroke-miterlimit="1.45" font-family="sans-serif" transform="matrix(1,0,0,1,15,15)" stroke-linecap="butt">
      <text x="353.9766" xml:space="preserve" y="319.1562" clip-path="url(#clipPath2)" stroke="none">com.google.inject.extensions:guice-assistedinject:jar:3.0</text>
      <rect fill="none" x="346.9766" width="355.4375" height="30" y="300" clip-path="url(#clipPath2)"/>
    </g>
    <g fill="rgb(204,204,255)" transform="matrix(1,0,0,1,15,15)" stroke="rgb(204,204,255)">
      <rect x="747.4141" width="200.2227" height="30" y="300" clip-path="url(#clipPath2)" stroke="none"/>
    </g>
    <g stroke-miterlimit="1.45" font-family="sans-serif" transform="matrix(1,0,0,1,15,15)" stroke-linecap="butt">
      <text x="754.4141" xml:space="preserve" y="319.1562" clip-path="url(#clipPath2)" stroke="none">com.google.inject:guice:jar:3.0</text>
      <rect fill="none" x="747.4141" width="200.2227" height="30" y="300" clip-path="url(#clipPath2)"/>
    </g>
    <g fill="rgb(204,204,255)" transform="matrix(1,0,0,1,15,15)" stroke="rgb(204,204,255)">
      <rect x="992.6367" width="198.0488" height="30" y="300" clip-path="url(#clipPath2)" stroke="none"/>
    </g>
    <g stroke-miterlimit="1.45" font-family="sans-serif" transform="matrix(1,0,0,1,15,15)" stroke-linecap="butt">
      <text x="999.6367" xml:space="preserve" y="319.1562" clip-path="url(#clipPath2)" stroke="none">aopalliance:aopalliance:jar:1.0</text>
      <rect fill="none" x="992.6367" width="198.0488" height="30" y="300" clip-path="url(#clipPath2)"/>
    </g>
    <g fill="rgb(255,204,153)" transform="matrix(1,0,0,1,15,15)" stroke="rgb(255,204,153)">
      <rect x="346.9766" width="326.0762" height="30" y="200" clip-path="url(#clipPath2)" stroke="none"/>
    </g>
    <g stroke-miterlimit="1.45" font-family="sans-serif" transform="matrix(1,0,0,1,15,15)" stroke-linecap="butt">
      <text x="353.9766" xml:space="preserve" y="219.1562" clip-path="url(#clipPath2)" stroke="none">com.anrisoftware.globalpom:globalpom-log:jar:1.10</text>
      <rect fill="none" x="346.9766" width="326.0762" height="30" y="200" clip-path="url(#clipPath2)"/>
    </g>
    <g fill="rgb(204,204,255)" transform="matrix(1,0,0,1,15,15)" stroke="rgb(204,204,255)">
      <rect x="346.9766" width="168.1836" height="30" y="250" clip-path="url(#clipPath2)" stroke="none"/>
    </g>
    <g stroke-miterlimit="1.45" font-family="sans-serif" transform="matrix(1,0,0,1,15,15)" stroke-linecap="butt">
      <text x="353.9766" xml:space="preserve" y="269.1562" clip-path="url(#clipPath2)" stroke="none">org.slf4j:slf4j-api:jar:1.7.5</text>
      <rect fill="none" x="346.9766" width="168.1836" height="30" y="250" clip-path="url(#clipPath2)"/>
      <path fill="none" d="M181.044 175 L471.5829 30" clip-path="url(#clipPath2)"/>
      <path fill="none" d="M656.3008 15 L701.3008 15" clip-path="url(#clipPath2)"/>
      <path fill="none" d="M1026.6797 15 L1071.6797 15" clip-path="url(#clipPath2)"/>
      <path fill="none" d="M195.6201 175 L478.2881 80" clip-path="url(#clipPath2)"/>
      <path fill="none" d="M225.3301 175 L448.3555 130" clip-path="url(#clipPath2)"/>
      <path fill="none" d="M698.418 115 L743.418 115" clip-path="url(#clipPath2)"/>
      <path fill="none" d="M174.066 205 L397.1508 350" clip-path="url(#clipPath2)"/>
      <path fill="none" d="M493.4805 365 L538.4805 365" clip-path="url(#clipPath2)"/>
      <path fill="none" d="M730.4707 365 L775.4707 365" clip-path="url(#clipPath2)"/>
      <path fill="none" d="M988.0098 365 L1033.0098 365" clip-path="url(#clipPath2)"/>
      <path fill="none" d="M301.9766 181.0767 L346.9766 178.4172" clip-path="url(#clipPath2)"/>
      <path fill="none" d="M195.8331 205 L479.8505 300" clip-path="url(#clipPath2)"/>
      <path fill="none" d="M702.4141 315 L747.4141 315" clip-path="url(#clipPath2)"/>
      <path fill="none" d="M947.6367 315 L992.6367 315" clip-path="url(#clipPath2)"/>
      <path fill="none" d="M301.9766 200.5137 L346.9766 203.6472" clip-path="url(#clipPath2)"/>
      <path fill="none" d="M207.0043 205 L375.0523 250" clip-path="url(#clipPath2)"/>
    </g>
  </g>
</svg>
