<?xml version="1.0" encoding="UTF-8"?><svg xmlns="http://www.w3.org/2000/svg" xmlns:xlink="http://www.w3.org/1999/xlink" fill-opacity="1" color-rendering="auto" color-interpolation="auto" stroke="black" text-rendering="auto" stroke-linecap="square" width="1317" stroke-miterlimit="10" stroke-opacity="1" shape-rendering="auto" fill="black" stroke-dasharray="none" font-weight="normal" stroke-width="1" height="360" font-family="'Dialog'" font-style="normal" stroke-linejoin="miter" font-size="12" stroke-dashoffset="0" image-rendering="auto">
  <!--Generated by ySVG-->
  <defs id="genericDefs"/>
  <g>
    <defs id="defs1">
      <clipPath clipPathUnits="userSpaceOnUse" id="clipPath1">
        <path d="M0 0 L1317 0 L1317 360 L0 360 L0 0 Z"/>
      </clipPath>
      <clipPath clipPathUnits="userSpaceOnUse" id="clipPath2">
        <path d="M-15 -15 L1302 -15 L1302 345 L-15 345 L-15 -15 Z"/>
      </clipPath>
    </defs>
    <g fill="white" transform="translate(15,15)" stroke="white">
      <rect x="-15" width="1317" height="360" y="-15" clip-path="url(#clipPath2)" stroke="none"/>
    </g>
    <g fill="rgb(255,204,153)" transform="matrix(1,0,0,1,15,15)" stroke="rgb(255,204,153)">
      <rect x="0" width="328.9648" height="30" y="150" clip-path="url(#clipPath2)" stroke="none"/>
    </g>
    <g stroke-miterlimit="1.45" font-family="sans-serif" transform="matrix(1,0,0,1,15,15)" stroke-linecap="butt">
      <text x="7" xml:space="preserve" y="169.1562" clip-path="url(#clipPath2)" stroke="none">com.anrisoftware.resources:resources-binary:jar:1.7</text>
      <rect fill="none" x="0" width="328.9648" height="30" y="150" clip-path="url(#clipPath2)"/>
    </g>
    <g fill="rgb(255,204,153)" transform="matrix(1,0,0,1,15,15)" stroke="rgb(255,204,153)">
      <rect x="373.9648" width="309.3242" height="30" y="0" clip-path="url(#clipPath2)" stroke="none"/>
    </g>
    <g stroke-miterlimit="1.45" font-family="sans-serif" transform="matrix(1,0,0,1,15,15)" stroke-linecap="butt">
      <text x="380.9648" xml:space="preserve" y="19.1562" clip-path="url(#clipPath2)" stroke="none">com.anrisoftware.resources:resources-api:jar:1.8</text>
      <rect fill="none" x="373.9648" width="309.3242" height="30" y="0" clip-path="url(#clipPath2)"/>
    </g>
    <g fill="rgb(255,204,153)" transform="matrix(1,0,0,1,15,15)" stroke="rgb(255,204,153)">
      <rect x="728.2891" width="325.3789" height="30" y="0" clip-path="url(#clipPath2)" stroke="none"/>
    </g>
    <g stroke-miterlimit="1.45" font-family="sans-serif" transform="matrix(1,0,0,1,15,15)" stroke-linecap="butt">
      <text x="735.2891" xml:space="preserve" y="19.1562" clip-path="url(#clipPath2)" stroke="none">com.anrisoftware.globalpom:globalpom-utils:jar:1.4</text>
      <rect fill="none" x="728.2891" width="325.3789" height="30" y="0" clip-path="url(#clipPath2)"/>
    </g>
    <g fill="rgb(204,204,255)" transform="matrix(1,0,0,1,15,15)" stroke="rgb(204,204,255)">
      <rect x="1098.668" width="187.4199" height="30" y="0" clip-path="url(#clipPath2)" stroke="none"/>
    </g>
    <g stroke-miterlimit="1.45" font-family="sans-serif" transform="matrix(1,0,0,1,15,15)" stroke-linecap="butt">
      <text x="1105.668" xml:space="preserve" y="19.1562" clip-path="url(#clipPath2)" stroke="none">javax.inject:javax.inject:jar:1</text>
      <rect fill="none" x="1098.668" width="187.4199" height="30" y="0" clip-path="url(#clipPath2)"/>
    </g>
    <g fill="rgb(255,204,153)" transform="matrix(1,0,0,1,15,15)" stroke="rgb(255,204,153)">
      <rect x="373.9648" width="351.8867" height="30" y="50" clip-path="url(#clipPath2)" stroke="none"/>
    </g>
    <g stroke-miterlimit="1.45" font-family="sans-serif" transform="matrix(1,0,0,1,15,15)" stroke-linecap="butt">
      <text x="380.9648" xml:space="preserve" y="69.1562" clip-path="url(#clipPath2)" stroke="none">com.anrisoftware.resources:resources-getbundle:jar:1.6</text>
      <rect fill="none" x="373.9648" width="351.8867" height="30" y="50" clip-path="url(#clipPath2)"/>
    </g>
    <g fill="rgb(204,204,255)" transform="matrix(1,0,0,1,15,15)" stroke="rgb(204,204,255)">
      <rect x="373.9648" width="355.4375" height="30" y="300" clip-path="url(#clipPath2)" stroke="none"/>
    </g>
    <g stroke-miterlimit="1.45" font-family="sans-serif" transform="matrix(1,0,0,1,15,15)" stroke-linecap="butt">
      <text x="380.9648" xml:space="preserve" y="319.1562" clip-path="url(#clipPath2)" stroke="none">com.google.inject.extensions:guice-assistedinject:jar:3.0</text>
      <rect fill="none" x="373.9648" width="355.4375" height="30" y="300" clip-path="url(#clipPath2)"/>
    </g>
    <g fill="rgb(204,204,255)" transform="matrix(1,0,0,1,15,15)" stroke="rgb(204,204,255)">
      <rect x="774.4023" width="200.2227" height="30" y="300" clip-path="url(#clipPath2)" stroke="none"/>
    </g>
    <g stroke-miterlimit="1.45" font-family="sans-serif" transform="matrix(1,0,0,1,15,15)" stroke-linecap="butt">
      <text x="781.4023" xml:space="preserve" y="319.1562" clip-path="url(#clipPath2)" stroke="none">com.google.inject:guice:jar:3.0</text>
      <rect fill="none" x="774.4023" width="200.2227" height="30" y="300" clip-path="url(#clipPath2)"/>
    </g>
    <g fill="rgb(204,204,255)" transform="matrix(1,0,0,1,15,15)" stroke="rgb(204,204,255)">
      <rect x="1019.625" width="198.0488" height="30" y="300" clip-path="url(#clipPath2)" stroke="none"/>
    </g>
    <g stroke-miterlimit="1.45" font-family="sans-serif" transform="matrix(1,0,0,1,15,15)" stroke-linecap="butt">
      <text x="1026.625" xml:space="preserve" y="319.1562" clip-path="url(#clipPath2)" stroke="none">aopalliance:aopalliance:jar:1.0</text>
      <rect fill="none" x="1019.625" width="198.0488" height="30" y="300" clip-path="url(#clipPath2)"/>
    </g>
    <g fill="rgb(204,204,255)" transform="matrix(1,0,0,1,15,15)" stroke="rgb(204,204,255)">
      <rect x="373.9648" width="287.1758" height="30" y="250" clip-path="url(#clipPath2)" stroke="none"/>
    </g>
    <g stroke-miterlimit="1.45" font-family="sans-serif" transform="matrix(1,0,0,1,15,15)" stroke-linecap="butt">
      <text x="380.9648" xml:space="preserve" y="269.1562" clip-path="url(#clipPath2)" stroke="none">org.apache.commons:commons-lang3:jar:3.1</text>
      <rect fill="none" x="373.9648" width="287.1758" height="30" y="250" clip-path="url(#clipPath2)"/>
    </g>
    <g fill="rgb(255,204,153)" transform="matrix(1,0,0,1,15,15)" stroke="rgb(255,204,153)">
      <rect x="373.9648" width="326.0762" height="30" y="100" clip-path="url(#clipPath2)" stroke="none"/>
    </g>
    <g stroke-miterlimit="1.45" font-family="sans-serif" transform="matrix(1,0,0,1,15,15)" stroke-linecap="butt">
      <text x="380.9648" xml:space="preserve" y="119.1562" clip-path="url(#clipPath2)" stroke="none">com.anrisoftware.globalpom:globalpom-log:jar:1.10</text>
      <rect fill="none" x="373.9648" width="326.0762" height="30" y="100" clip-path="url(#clipPath2)"/>
    </g>
    <g fill="rgb(204,204,255)" transform="matrix(1,0,0,1,15,15)" stroke="rgb(204,204,255)">
      <rect x="373.9648" width="207.8809" height="30" y="200" clip-path="url(#clipPath2)" stroke="none"/>
    </g>
    <g stroke-miterlimit="1.45" font-family="sans-serif" transform="matrix(1,0,0,1,15,15)" stroke-linecap="butt">
      <text x="380.9648" xml:space="preserve" y="219.1562" clip-path="url(#clipPath2)" stroke="none">commons-io:commons-io:jar:2.4</text>
      <rect fill="none" x="373.9648" width="207.8809" height="30" y="200" clip-path="url(#clipPath2)"/>
    </g>
    <g fill="rgb(204,204,255)" transform="matrix(1,0,0,1,15,15)" stroke="rgb(204,204,255)">
      <rect x="373.9648" width="168.1836" height="30" y="150" clip-path="url(#clipPath2)" stroke="none"/>
    </g>
    <g stroke-miterlimit="1.45" font-family="sans-serif" transform="matrix(1,0,0,1,15,15)" stroke-linecap="butt">
      <text x="380.9648" xml:space="preserve" y="169.1562" clip-path="url(#clipPath2)" stroke="none">org.slf4j:slf4j-api:jar:1.7.5</text>
      <rect fill="none" x="373.9648" width="168.1836" height="30" y="150" clip-path="url(#clipPath2)"/>
      <path fill="none" d="M200.8969 150 L492.2125 30" clip-path="url(#clipPath2)"/>
      <path fill="none" d="M683.2891 15 L728.2891 15" clip-path="url(#clipPath2)"/>
      <path fill="none" d="M1053.668 15 L1098.668 15" clip-path="url(#clipPath2)"/>
      <path fill="none" d="M222.2963 150 L492.0943 80" clip-path="url(#clipPath2)"/>
      <path fill="none" d="M203.2025 180 L512.9635 300" clip-path="url(#clipPath2)"/>
      <path fill="none" d="M729.4023 315 L774.4023 315" clip-path="url(#clipPath2)"/>
      <path fill="none" d="M974.625 315 L1019.625 315" clip-path="url(#clipPath2)"/>
      <path fill="none" d="M217.443 180 L464.5922 250" clip-path="url(#clipPath2)"/>
      <path fill="none" d="M276.2386 150 L425.2468 130" clip-path="url(#clipPath2)"/>
      <path fill="none" d="M258.5093 180 L383.8784 200" clip-path="url(#clipPath2)"/>
      <path fill="none" d="M328.9648 165 L373.9648 165" clip-path="url(#clipPath2)"/>
    </g>
  </g>
</svg>
