<?xml version="1.0" encoding="UTF-8"?><svg xmlns="http://www.w3.org/2000/svg" xmlns:xlink="http://www.w3.org/1999/xlink" fill-opacity="1" color-rendering="auto" color-interpolation="auto" stroke="black" text-rendering="auto" stroke-linecap="square" width="1599" stroke-miterlimit="10" stroke-opacity="1" shape-rendering="auto" fill="black" stroke-dasharray="none" font-weight="normal" stroke-width="1" height="210" font-family="'Dialog'" font-style="normal" stroke-linejoin="miter" font-size="12" stroke-dashoffset="0" image-rendering="auto">
  <!--Generated by ySVG-->
  <defs id="genericDefs"/>
  <g>
    <defs id="defs1">
      <clipPath clipPathUnits="userSpaceOnUse" id="clipPath1">
        <path d="M0 0 L1599 0 L1599 210 L0 210 L0 0 Z"/>
      </clipPath>
      <clipPath clipPathUnits="userSpaceOnUse" id="clipPath2">
        <path d="M-15 -15 L1584 -15 L1584 195 L-15 195 L-15 -15 Z"/>
      </clipPath>
    </defs>
    <g fill="white" transform="translate(15,15)" stroke="white">
      <rect x="-15" width="1599" height="210" y="-15" clip-path="url(#clipPath2)" stroke="none"/>
    </g>
    <g fill="rgb(255,204,153)" transform="matrix(1,0,0,1,15,15)" stroke="rgb(255,204,153)">
      <rect x="0" width="309.3242" height="30" y="100" clip-path="url(#clipPath2)" stroke="none"/>
    </g>
    <g stroke-miterlimit="1.45" font-family="'DejaVu Sans'" transform="matrix(1,0,0,1,15,15)" stroke-linecap="butt">
      <text x="7" xml:space="preserve" y="119.1562" clip-path="url(#clipPath2)" stroke="none">com.anrisoftware.resources:resources-api:jar:1.8</text>
      <rect fill="none" x="0" width="309.3242" height="30" y="100" clip-path="url(#clipPath2)"/>
    </g>
    <g fill="rgb(255,204,153)" transform="matrix(1,0,0,1,15,15)" stroke="rgb(255,204,153)">
      <rect x="354.3242" width="325.3789" height="30" y="75" clip-path="url(#clipPath2)" stroke="none"/>
    </g>
    <g stroke-miterlimit="1.45" font-family="'DejaVu Sans'" transform="matrix(1,0,0,1,15,15)" stroke-linecap="butt">
      <text x="361.3242" xml:space="preserve" y="94.1562" clip-path="url(#clipPath2)" stroke="none">com.anrisoftware.globalpom:globalpom-utils:jar:1.4</text>
      <rect fill="none" x="354.3242" width="325.3789" height="30" y="75" clip-path="url(#clipPath2)"/>
    </g>
    <g fill="rgb(255,204,153)" transform="matrix(1,0,0,1,15,15)" stroke="rgb(255,204,153)">
      <rect x="724.7031" width="326.0762" height="30" y="0" clip-path="url(#clipPath2)" stroke="none"/>
    </g>
    <g stroke-miterlimit="1.45" font-family="'DejaVu Sans'" transform="matrix(1,0,0,1,15,15)" stroke-linecap="butt">
      <text x="731.7031" xml:space="preserve" y="19.1562" clip-path="url(#clipPath2)" stroke="none">com.anrisoftware.globalpom:globalpom-log:jar:1.10</text>
      <rect fill="none" x="724.7031" width="326.0762" height="30" y="0" clip-path="url(#clipPath2)"/>
    </g>
    <g fill="rgb(204,204,255)" transform="matrix(1,0,0,1,15,15)" stroke="rgb(204,204,255)">
      <rect x="724.7031" width="187.4199" height="30" y="150" clip-path="url(#clipPath2)" stroke="none"/>
    </g>
    <g stroke-miterlimit="1.45" font-family="'DejaVu Sans'" transform="matrix(1,0,0,1,15,15)" stroke-linecap="butt">
      <text x="731.7031" xml:space="preserve" y="169.1562" clip-path="url(#clipPath2)" stroke="none">javax.inject:javax.inject:jar:1</text>
      <rect fill="none" x="724.7031" width="187.4199" height="30" y="150" clip-path="url(#clipPath2)"/>
    </g>
    <g fill="rgb(204,204,255)" transform="matrix(1,0,0,1,15,15)" stroke="rgb(204,204,255)">
      <rect x="724.7031" width="355.4375" height="30" y="100" clip-path="url(#clipPath2)" stroke="none"/>
    </g>
    <g stroke-miterlimit="1.45" font-family="'DejaVu Sans'" transform="matrix(1,0,0,1,15,15)" stroke-linecap="butt">
      <text x="731.7031" xml:space="preserve" y="119.1562" clip-path="url(#clipPath2)" stroke="none">com.google.inject.extensions:guice-assistedinject:jar:3.0</text>
      <rect fill="none" x="724.7031" width="355.4375" height="30" y="100" clip-path="url(#clipPath2)"/>
    </g>
    <g fill="rgb(204,204,255)" transform="matrix(1,0,0,1,15,15)" stroke="rgb(204,204,255)">
      <rect x="1125.1406" width="200.2227" height="30" y="100" clip-path="url(#clipPath2)" stroke="none"/>
    </g>
    <g stroke-miterlimit="1.45" font-family="'DejaVu Sans'" transform="matrix(1,0,0,1,15,15)" stroke-linecap="butt">
      <text x="1132.1406" xml:space="preserve" y="119.1562" clip-path="url(#clipPath2)" stroke="none">com.google.inject:guice:jar:3.0</text>
      <rect fill="none" x="1125.1406" width="200.2227" height="30" y="100" clip-path="url(#clipPath2)"/>
    </g>
    <g fill="rgb(204,204,255)" transform="matrix(1,0,0,1,15,15)" stroke="rgb(204,204,255)">
      <rect x="1370.3633" width="198.0488" height="30" y="100" clip-path="url(#clipPath2)" stroke="none"/>
    </g>
    <g stroke-miterlimit="1.45" font-family="'DejaVu Sans'" transform="matrix(1,0,0,1,15,15)" stroke-linecap="butt">
      <text x="1377.3633" xml:space="preserve" y="119.1562" clip-path="url(#clipPath2)" stroke="none">aopalliance:aopalliance:jar:1.0</text>
      <rect fill="none" x="1370.3633" width="198.0488" height="30" y="100" clip-path="url(#clipPath2)"/>
    </g>
    <g fill="rgb(204,204,255)" transform="matrix(1,0,0,1,15,15)" stroke="rgb(204,204,255)">
      <rect x="724.7031" width="287.1758" height="30" y="50" clip-path="url(#clipPath2)" stroke="none"/>
    </g>
    <g stroke-miterlimit="1.45" font-family="'DejaVu Sans'" transform="matrix(1,0,0,1,15,15)" stroke-linecap="butt">
      <text x="731.7031" xml:space="preserve" y="69.1562" clip-path="url(#clipPath2)" stroke="none">org.apache.commons:commons-lang3:jar:3.1</text>
      <rect fill="none" x="724.7031" width="287.1758" height="30" y="50" clip-path="url(#clipPath2)"/>
    </g>
    <g fill="rgb(204,204,255)" transform="matrix(1,0,0,1,15,15)" stroke="rgb(204,204,255)">
      <rect x="354.3242" width="168.1836" height="30" y="125" clip-path="url(#clipPath2)" stroke="none"/>
    </g>
    <g stroke-miterlimit="1.45" font-family="'DejaVu Sans'" transform="matrix(1,0,0,1,15,15)" stroke-linecap="butt">
      <text x="361.3242" xml:space="preserve" y="144.1562" clip-path="url(#clipPath2)" stroke="none">org.slf4j:slf4j-api:jar:1.7.5</text>
      <rect fill="none" x="354.3242" width="168.1836" height="30" y="125" clip-path="url(#clipPath2)"/>
      <path fill="none" d="M154.6621 99.9541 L154.6621 88.2426 L158.9048 84 L354.2765 84" clip-path="url(#clipPath2)"/>
      <path fill="none" d="M437.1689 74.958 L437.1689 31.9706 L454.1395 15 L724.6701 15" clip-path="url(#clipPath2)"/>
      <path fill="none" d="M568.5566 105 L568.5566 148.0294 L585.5272 165 L724.6691 165" clip-path="url(#clipPath2)"/>
      <path fill="none" d="M640.6543 105 L640.6543 116.7574 L644.8969 121 L724.6642 121" clip-path="url(#clipPath2)"/>
      <path fill="none" d="M1080.1406 115 L1125.0967 115" clip-path="url(#clipPath2)"/>
      <path fill="none" d="M1325.3633 115 L1370.3193 115" clip-path="url(#clipPath2)"/>
      <path fill="none" d="M596.8584 74.9541 L596.8584 63.2426 L601.101 59 L724.673 59" clip-path="url(#clipPath2)"/>
      <path fill="none" d="M154.6621 130 L154.6621 143.1716 L157.4905 146 L354.2762 146" clip-path="url(#clipPath2)"/>
    </g>
  </g>
</svg>
